<?xml version="1.0" encoding="utf-8"?>
<!-- Generator: Adobe Illustrator 16.0.0, SVG Export Plug-In . SVG Version: 6.00 Build 0)  -->
<!DOCTYPE svg PUBLIC "-//W3C//DTD SVG 1.1//EN" "http://www.w3.org/Graphics/SVG/1.1/DTD/svg11.dtd">
<svg version="1.1" id="Layer_1" xmlns="http://www.w3.org/2000/svg" xmlns:xlink="http://www.w3.org/1999/xlink" x="0px" y="0px"
	 width="1200px" height="1200px" viewBox="0 0 1200 1200" enable-background="new 0 0 1200 1200" xml:space="preserve">
<path fill="#264DE4" d="M599.502,1175l-332.723-92.367l-74.147-831.63h814.736l-74.224,831.502L599.502,1175L599.502,1175z"/>
<path fill="#2965F1" d="M869.6,1029.557l63.427-710.558H600v785.299L869.6,1029.557z"/>
<path fill="#EBEBEB" d="M362.612,627.439l9.14,101.995H600V627.439H362.612z M344.242,420.998l9.271,101.996H600V420.998H344.242z
	 M600,892.335l-0.447,0.118l-113.592-30.672l-7.263-81.346h-102.39l14.289,160.148l208.934,57.997l0.469-0.128V892.335z"/>
<path d="M384.376,25h123.531v51.66h-71.871v51.661h71.877v51.656H384.376V25z M532.617,25H656.15v44.922h-71.873v8.984h71.873
	v103.32H532.62v-47.174h71.874v-8.982h-71.88V25H532.617z M680.86,25h123.534v44.922h-71.873v8.984h71.873v103.32H680.86v-47.174
	h71.874v-8.982h-71.871V25H680.86z"/>
<path fill="#FFFFFF" d="M836.736,627.439l18.412-206.441h-255.5v101.996h143.721l-9.281,104.445H599.648v101.995h125.597
	l-11.843,132.281L599.644,892.42v106.113l209.1-57.949l1.532-17.232l23.973-268.522L836.736,627.439L836.736,627.439z"/>
</svg>
