<?xml version="1.0" encoding="UTF-8" standalone="no"?>
<!-- Generator: Adobe Illustrator 16.0.0, SVG Export Plug-In . SVG Version: 6.00 Build 0)  -->

<svg
   xmlns:dc="http://purl.org/dc/elements/1.1/"
   xmlns:cc="http://creativecommons.org/ns#"
   xmlns:rdf="http://www.w3.org/1999/02/22-rdf-syntax-ns#"
   xmlns:svg="http://www.w3.org/2000/svg"
   xmlns="http://www.w3.org/2000/svg"
   xmlns:sodipodi="http://sodipodi.sourceforge.net/DTD/sodipodi-0.dtd"
   xmlns:inkscape="http://www.inkscape.org/namespaces/inkscape"
   version="1.1"
   id="Layer_1"
   x="0px"
   y="0px"
   width="300"
   height="300"
   viewBox="0 0 300 300"
   enable-background="new 0 0 1200 1200"
   xml:space="preserve"
   sodipodi:docname="css3.svg"
   inkscape:version="0.92.1 r15371"><metadata
     id="metadata112"><rdf:RDF><cc:Work
         rdf:about=""><dc:format>image/svg+xml</dc:format><dc:type
           rdf:resource="http://purl.org/dc/dcmitype/StillImage" /><dc:title /></cc:Work></rdf:RDF></metadata><defs
     id="defs110" /><sodipodi:namedview
     pagecolor="#ffffff"
     bordercolor="#666666"
     borderopacity="1"
     objecttolerance="10"
     gridtolerance="10"
     guidetolerance="10"
     inkscape:pageopacity="0"
     inkscape:pageshadow="2"
     inkscape:window-width="1920"
     inkscape:window-height="983"
     id="namedview108"
     showgrid="false"
     inkscape:zoom="2.0149341"
     inkscape:cx="163.75663"
     inkscape:cy="228.85278"
     inkscape:window-x="0"
     inkscape:window-y="27"
     inkscape:window-maximized="1"
     inkscape:current-layer="Layer_1" /><path
     d="M 149.87008,300 63.072785,275.90426 43.730085,58.957304 H 256.26991 L 236.90712,275.87087 Z"
     id="path97"
     inkscape:connector-curvature="0"
     style="fill:#264de4;stroke-width:0.26086956" /><path
     d="M 220.33043,262.05835 236.8766,76.695392 H 149.99999 V 281.556 Z"
     id="path99"
     inkscape:connector-curvature="0"
     style="fill:#2965f1;stroke-width:0.26086956" /><path
     d="m 88.072695,157.158 2.38435,26.60739 H 150 V 157.158 Z m -4.79217,-53.85417 2.41852,26.60765 H 150 V 103.30383 Z M 150,226.26131 l -0.11661,0.0308 -29.63269,-8.00139 -1.8947,-21.22069 H 91.645565 l 3.72756,41.77773 54.504525,15.12966 0.12235,-0.0334 z"
     id="path101"
     inkscape:connector-curvature="0"
     style="fill:#ebebeb;stroke-width:0.26086956" /><path
     d="M 95.215042,8.4370005 H 127.44052 V 21.91352 h -18.74895 v 13.476782 h 18.75052 v 13.47548 H 95.215042 Z m 38.671568,0 h 32.226 V 20.15578 h -18.74948 v 2.343655 h 18.74948 V 49.452478 H 133.88739 V 37.146221 h 18.74974 V 34.80309 h -18.7513 V 8.4370005 Z m 38.67208,0 h 32.22627 V 20.15578 h -18.74947 v 2.343655 h 18.74947 V 49.452478 H 172.55869 V 37.146221 h 18.74974 V 34.80309 H 172.55948 V 8.4370005 Z"
     id="path103"
     inkscape:connector-curvature="0"
     style="fill:#ffffff;fill-opacity:1;stroke-width:0.26086956" /><path
     d="m 211.75721,157.158 4.80313,-53.85417 h -66.65217 v 26.60765 h 37.49244 l -2.42114,27.24652 h -35.0713 v 26.60739 h 32.76443 l -3.08948,34.50809 -29.676,8.01 v 27.68165 l 54.54783,-15.11713 0.39965,-4.4953 6.25383,-70.04922 z"
     id="path105"
     inkscape:connector-curvature="0"
     style="fill:#ffffff;stroke-width:0.26086956" /></svg>