<!--?xml version="1.0" standalone="no"?-->
<svg version="1.0" xmlns="http://www.w3.org/2000/svg" width="300.000000pt" height="300.000000pt" viewBox="0 0 300.000000 300.000000" preserveAspectRatio="xMidYMid meet">
<metadata>
  <rdf:rdf xmlns:rdf="http://www.w3.org/1999/02/22-rdf-syntax-ns#" xmlns:rdfs="http://www.w3.org/2000/01/rdf-schema#" xmlns:dc="http://purl.org/dc/elements/1.1/">
    <rdf:description dc:title="dhcp" dc:publisher="Hiox" dc:date="2015-04-16" dc:format="image/svg+xml" dc:language="en">
      <dc:creator>
        <rdf:bag>
          <rdf:li>svgimages.com</rdf:li>
        </rdf:bag>
      </dc:creator>
    </rdf:description>
  </rdf:rdf>
</metadata>
<g transform="translate(0.000000,300.000000) scale(0.100000,-0.100000)" fill="#282828" stroke="none">
<path d="M2337 2629 c-68 -36 -77 -63 -77 -232 0 -240 8 -247 283 -247 l187 0 40 40 c30 30 40 48 41 73 5 289 0 313 -65 361 -25 19 -43 21 -199 23 -157 3 -175 1 -210 -18z m385 -76 c16 -14 18 -33 18 -156 0 -117 -3 -144 -17 -159 -14 -16 -34 -18 -183 -18 -219 0 -210 -8 -210 173 0 187 -12 177 202 177 145 0 174 -3 190 -17z" id="node1" class="node"/>
<path d="M1808 2429 c-17 -9 -18 -41 -18 -449 l0 -440 -101 0 c-55 0 -109 -5 -120 -10 -21 -12 -25 -41 -9 -71 10 -17 22 -19 114 -19 99 0 104 -1 110 -22 3 -13 6 -211 6 -440 0 -402 1 -418 19 -428 11 -6 88 -10 179 -10 141 0 161 2 175 18 22 24 21 45 -1 65 -15 14 -41 17 -138 17 -80 0 -124 4 -132 12 -9 9 -12 103 -11 367 1 196 4 370 8 386 l6 30 125 3 c130 3 160 13 160 53 0 41 -25 49 -154 49 -95 0 -126 3 -135 14 -9 11 -11 113 -9 391 3 321 5 377 18 385 8 5 67 10 131 10 99 0 118 3 132 18 21 23 22 46 1 66 -13 13 -43 16 -177 16 -91 0 -170 -5 -179 -11z" id="node2" class="node"/>
<path d="M405 2311 c-85 -22 -151 -77 -187 -159 -18 -39 -19 -66 -16 -340 l3 -299 30 -48 c36 -59 101 -110 155 -125 27 -7 190 -10 478 -8 l437 3 45 27 c60 35 94 72 122 133 22 48 23 59 23 335 0 275 -1 287 -22 326 -34 64 -71 103 -127 132 l-51 27 -430 2 c-236 1 -443 -2 -460 -6z m858 -137 c31 -11 57 -28 75 -52 l27 -35 3 -241 c2 -154 0 -254 -7 -278 -6 -20 -27 -50 -46 -67 l-36 -31 -431 0 -431 0 -34 26 c-58 44 -63 70 -63 325 0 183 3 236 15 267 17 41 59 79 104 92 14 5 195 9 402 9 320 1 382 -1 422 -15z" id="node3" class="node"/>
<path d="M2344 1740 c-11 -4 -34 -24 -52 -44 l-32 -37 0 -150 c0 -246 14 -259 280 -258 259 0 272 12 271 251 -2 237 -15 248 -278 247 -92 0 -177 -4 -189 -9z m376 -80 c18 -18 20 -33 20 -158 0 -186 11 -177 -207 -177 -211 0 -203 -7 -203 175 0 114 2 130 21 154 l20 26 165 0 c151 0 166 -2 184 -20z" id="node4" class="node"/>
<path d="M254 1240 c-45 -18 -54 -46 -54 -176 0 -121 0 -121 30 -153 l30 -31 584 0 584 0 31 30 c37 37 44 72 40 190 -4 89 -5 93 -37 121 l-32 29 -578 -1 c-317 0 -587 -4 -598 -9z m1089 -124 c7 -18 -1 -26 -25 -26 -11 0 -18 7 -18 20 0 23 35 28 43 6z" id="node5" class="node"/>
<path d="M2335 838 c-67 -40 -75 -65 -75 -233 0 -158 7 -185 56 -224 25 -20 39 -21 220 -21 l194 0 38 34 37 34 5 119 c8 181 1 226 -38 265 l-32 33 -193 3 c-134 1 -198 -2 -212 -10z m387 -75 c16 -14 18 -33 18 -156 0 -117 -3 -144 -17 -159 -14 -16 -34 -18 -189 -18 -216 0 -204 -11 -204 177 0 182 -10 173 207 173 141 0 169 -3 185 -17z" id="node6" class="node"/>
</g>
<g transform="translate(0.000000,300.000000) scale(0.100000,-0.100000)" fill="#FFFFFF" stroke="none">

<path d="M2346 2548 c-13 -18 -16 -51 -16 -155 0 -181 -9 -173 210 -173 149 0 169 2 183 18 14 15 17 42 17 159 0 123 -2 142 -18 156 -16 14 -45 17 -190 17 -165 0 -171 -1 -186 -22z" id="node8" class="node"/>
<path d="M439 2180 c-45 -13 -87 -51 -104 -92 -12 -31 -15 -84 -15 -267 0 -255 5 -281 63 -325 l34 -26 431 0 431 0 36 31 c19 17 40 47 46 67 7 24 9 124 7 278 l-3 241 -27 35 c-50 65 -72 68 -497 67 -207 0 -388 -4 -402 -9z" id="node9" class="node"/>
<path d="M2351 1654 c-19 -24 -21 -40 -21 -154 0 -182 -8 -175 203 -175 218 0 207 -9 207 177 0 187 11 178 -204 178 l-165 0 -20 -26z" id="node10" class="node"/>
<path d="M1300 1110 c0 -13 7 -20 18 -20 24 0 32 8 25 26 -8 22 -43 17 -43 -6z" id="node11" class="node"/>
<path d="M2350 760 c-18 -18 -20 -33 -20 -153 0 -188 -12 -177 204 -177 155 0 175 2 189 18 14 15 17 42 17 159 0 123 -2 142 -18 156 -16 14 -44 17 -185 17 -154 0 -169 -2 -187 -20z" id="node12" class="node"/>
</g>
</svg>