<?xml version="1.0" encoding="UTF-8"?>
<!-- Generator: Adobe Illustrator 16.0.0, SVG Export Plug-In . SVG Version: 6.00 Build 0) -->
<svg xmlns="http://www.w3.org/2000/svg" xmlns:xlink="http://www.w3.org/1999/xlink" version="1.1" id="Layer_1" x="0px" y="0px" width="251.01px" height="251.01px" viewBox="0 0 251.01 251.01" xml:space="preserve"> <path fill="#3471B3" d="M244.673,96.375c-6.936-6.926-18.174-6.918-25.1,0.019c-2.479,2.482-4.166,5.644-4.85,9.084 c-0.125,0.008-0.25,0.023-0.375,0.045c-0.659,0.112-16.436,2.84-38.072,11.44c-18.834,7.464-45.6,20.968-68.926,43.28l-5.451-5.451 L204.491,52.231c8.547,4.799,19.365,1.761,24.165-6.786c4.8-8.547,1.761-19.366-6.786-24.166 c-8.547-4.799-19.365-1.761-24.165,6.786c-3.023,5.385-3.03,11.954-0.02,17.345L95.089,147.978l-5.451-5.451 c22.313-23.327,35.806-50.097,43.297-68.926c8.62-21.638,11.333-37.414,11.445-38.078c0-0.117,0.029-0.238,0.04-0.36 c9.614-1.912,15.858-11.255,13.946-20.869c-0.686-3.447-2.379-6.612-4.864-9.096c-7.141-6.716-18.373-6.371-25.089,0.769 c-6.431,6.838-6.425,17.501,0.013,24.333c1.806,1.817,3.985,3.217,6.39,4.103c-0.508,2.784-3.448,17.186-10.903,35.877 c-7.145,17.911-19.964,43.332-41.075,65.415l-4.229-4.229C92.396,115,97.315,98.373,98.968,86.942 c1.068-7.04,1.132-14.195,0.193-21.252c9.148-3.521,13.71-13.791,10.189-22.939c-3.521-9.148-13.791-13.71-22.939-10.189 c-9.148,3.521-13.71,13.791-10.189,22.939c2.212,5.75,7.248,9.94,13.304,11.072c0.917,6.449,0.868,12.998-0.147,19.432 c-2.115,14.067-8.032,27.033-17.596,38.641l-4.762-4.762c-4.5-4.487-11.783-4.487-16.283,0L3,167.597 c-2.476,2.477-2.476,6.49,0,8.966s6.49,2.476,8.965,0l0,0l46.887-46.892l66.486,66.48l-44.037,44.037 c-2.519,2.432-2.59,6.443-0.158,8.963c2.431,2.519,6.444,2.59,8.963,0.158c0.053-0.051,0.105-0.104,0.156-0.156l44.863-44.863 c4.489-4.497,4.489-11.779,0-16.277l-7.84-7.84c11.607-9.564,24.574-15.477,38.642-17.596c6.431-1.026,12.979-1.084,19.427-0.174 c1.799,9.656,11.084,16.025,20.74,14.227c9.656-1.798,16.025-11.084,14.227-20.739s-11.084-16.025-20.74-14.227 c-6.075,1.132-11.127,5.337-13.344,11.104c-7.061-0.941-14.22-0.879-21.263,0.188c-11.431,1.654-28.058,6.594-44.523,20.361 l-6.283-6.289c22.1-21.1,47.521-33.914,65.416-41.075c18.718-7.464,33.134-10.391,35.888-10.908 c3.398,9.194,13.605,13.894,22.801,10.496c9.193-3.398,13.893-13.606,10.495-22.801c-0.889-2.405-2.288-4.589-4.103-6.402 L244.673,96.375z M207.407,30.994c3.168-3.168,8.306-3.168,11.474,0.001c3.169,3.169,3.168,8.306-0.001,11.475 c-3.168,3.167-8.305,3.167-11.473,0c-3.17-3.128-3.202-8.233-0.074-11.402C207.358,31.042,207.382,31.018,207.407,30.994z M135.211,12.013c3.169-3.168,8.306-3.167,11.474,0.001c3.169,3.169,3.168,8.306,0,11.474c-3.169,3.168-8.305,3.168-11.474,0 c-3.169-3.116-3.212-8.212-0.095-11.381C135.147,12.076,135.179,12.044,135.211,12.013z M87.036,43.393 c3.17-3.167,8.308-3.164,11.475,0.006c3.167,3.17,3.164,8.308-0.006,11.475c-3.168,3.164-8.3,3.164-11.468,0 c-3.17-3.127-3.206-8.232-0.078-11.402C86.984,43.445,87.01,43.418,87.036,43.393z M197.077,153.434 c3.169-3.169,8.307-3.167,11.475,0.001c3.168,3.169,3.168,8.307-0.002,11.475c-3.168,3.168-8.305,3.168-11.473,0 c-3.179-3.127-3.221-8.238-0.094-11.416c0.023-0.025,0.049-0.051,0.073-0.074L197.077,153.434z M237.884,114.681 c-3.17,3.167-8.309,3.164-11.475-0.006c-3.167-3.17-3.164-8.308,0.006-11.474c3.168-3.165,8.301-3.165,11.469,0 c3.16,3.137,3.18,8.242,0.043,11.402c-0.021,0.021-0.043,0.042-0.063,0.063L237.884,114.681z"/> </svg>