<?xml version="1.0" encoding="UTF-8" standalone="no"?>
<!-- Generator: Adobe Illustrator 25.4.1, SVG Export Plug-In . SVG Version: 6.00 Build 0)  -->

<svg
   version="1.1"
   id="Calque_1"
   x="0px"
   y="0px"
   viewBox="0 0 203.53496 193.93813"
   xml:space="preserve"
   sodipodi:docname="fun-mooc.svg"
   width="203.53496"
   height="193.93813"
   inkscape:version="1.2.2 (b0a8486541, 2022-12-01)"
   xmlns:inkscape="http://www.inkscape.org/namespaces/inkscape"
   xmlns:sodipodi="http://sodipodi.sourceforge.net/DTD/sodipodi-0.dtd"
   xmlns="http://www.w3.org/2000/svg"
   xmlns:svg="http://www.w3.org/2000/svg"><defs
   id="defs123" /><sodipodi:namedview
   id="namedview121"
   pagecolor="#ffffff"
   bordercolor="#000000"
   borderopacity="0.25"
   inkscape:showpageshadow="2"
   inkscape:pageopacity="0.0"
   inkscape:pagecheckerboard="0"
   inkscape:deskcolor="#d1d1d1"
   showgrid="false"
   inkscape:zoom="2.4740061"
   inkscape:cx="225.74722"
   inkscape:cy="136.62052"
   inkscape:window-width="1920"
   inkscape:window-height="1011"
   inkscape:window-x="0"
   inkscape:window-y="0"
   inkscape:window-maximized="1"
   inkscape:current-layer="Calque_1" />
<style
   type="text/css"
   id="style2">
	.st0{fill:#0A51A1;}
	.st1{fill:#FFFFFF;stroke:#FFFFFF;stroke-width:0.5;stroke-miterlimit:10;}
	.st2{fill:#FD1215;}
	.st3{fill:#010203;}
</style>
<g
   id="g6"
   transform="translate(-61.146786,-26.848791)">
	<path
   class="st0"
   d="M 245.7,162.5 C 209.9,265.9 26,218.1 67.1,97.1 82.5,52.2 177.6,11.3 222,32.7 c 31,14.3 39.1,92 23.7,129.8"
   id="path4" />
</g>
<g
   id="g14"
   transform="translate(-61.146786,-26.848791)">
	<path
   class="st1"
   d="m 92.2,103.9 0.7,0.1 H 120 l 0.5,-0.1 c 1.6,0 2.5,1 2.8,3 -0.4,1.7 -1.4,2.5 -3,2.5 H 94.9 V 128 h 16.6 l 2,-0.1 c 1.2,0 2.1,0.9 2.5,2.8 0,1.2 -0.7,2.1 -2.2,2.8 L 111,133.4 H 95 V 153 l 0.1,0.8 c -0.4,1.7 -1.3,2.6 -2.6,2.6 h -0.3 c -1.7,-0.3 -2.6,-1.2 -2.6,-2.6 v -47.1 c 0.3,-1.7 1.1,-2.6 2.6,-2.6 z"
   id="path8" />
	<path
   class="st1"
   d="m 134.5,104.2 h 0.5 c 1.7,0.3 2.5,1.1 2.5,2.2 v 29.4 c 0,6.3 1.8,10.5 5.4,12.7 2.3,1.7 4.8,2.6 7.6,2.6 5.4,0 9.4,-2.8 12.1,-8.3 0.6,-1.7 0.8,-3.5 0.8,-5.4 v -30.6 c 0.3,-1.7 1.1,-2.6 2.5,-2.6 h 0.4 c 1.7,0.3 2.5,1.1 2.5,2.5 v 32.1 c 0,5.5 -2.6,10.2 -7.9,14.3 -3.3,2.2 -6.7,3.3 -10.1,3.3 h -0.9 c -5.7,0 -10.7,-2.8 -14.9,-8.4 -1.9,-3 -2.9,-6.7 -2.9,-11.1 v -29.6 c 0.3,-2.1 1,-3.1 2.4,-3.1 z"
   id="path10" />
	<path
   class="st1"
   d="m 182.5,104.3 h 0.5 c 1.2,0 2.2,0.9 3,2.7 1.4,1.5 11.3,14.3 29.9,38.3 0.2,0 0.3,0.1 0.3,0.4 l 0.1,0.1 h 0.1 v -39.1 c 0.3,-1.7 1.1,-2.5 2.5,-2.5 h 0.4 c 1.4,0 2.2,0.9 2.5,2.6 v 46.8 c 0,1.5 -1,2.4 -2.9,2.7 -1,0 -2.6,-1.6 -4.8,-4.8 L 185.5,115 v 38.8 c 0,1.4 -0.9,2.2 -2.6,2.5 h -0.1 c -1.4,0 -2.3,-0.9 -2.6,-2.7 v -46.2 c 0.2,-2.1 1,-3.1 2.3,-3.1 z"
   id="path12" />
</g>
<g
   id="g18"
   transform="translate(-61.146786,-26.848791)">
	<path
   class="st2"
   d="m 260.3,214.7 c -12.3,15.7 -34.6,-2.4 -20.5,-15.7 14.2,-13.2 33.7,0.9 20.5,15.7"
   id="path16" />
</g>



<g
   id="g82"
   transform="translate(-61.146786,-26.848791)">
	<path
   class="st1"
   d="m 92.2,103.9 0.7,0.1 H 120 l 0.5,-0.1 c 1.6,0 2.5,1 2.8,3 -0.4,1.7 -1.4,2.5 -3,2.5 H 94.9 V 128 h 16.6 l 2,-0.1 c 1.2,0 2.1,0.9 2.5,2.8 0,1.2 -0.7,2.1 -2.2,2.8 L 111,133.4 H 95 V 153 l 0.1,0.8 c -0.4,1.7 -1.3,2.6 -2.6,2.6 h -0.3 c -1.7,-0.3 -2.6,-1.2 -2.6,-2.6 v -47.1 c 0.3,-1.7 1.1,-2.6 2.6,-2.6 z"
   id="path76" />
	<path
   class="st1"
   d="m 134.5,104.2 h 0.5 c 1.7,0.3 2.5,1.1 2.5,2.2 v 29.4 c 0,6.3 1.8,10.5 5.4,12.7 2.3,1.7 4.8,2.6 7.6,2.6 5.4,0 9.4,-2.8 12.1,-8.3 0.6,-1.7 0.8,-3.5 0.8,-5.4 v -30.6 c 0.3,-1.7 1.1,-2.6 2.5,-2.6 h 0.4 c 1.7,0.3 2.5,1.1 2.5,2.5 v 32.1 c 0,5.5 -2.6,10.2 -7.9,14.3 -3.3,2.2 -6.7,3.3 -10.1,3.3 h -0.9 c -5.7,0 -10.7,-2.8 -14.9,-8.4 -1.9,-3 -2.9,-6.7 -2.9,-11.1 v -29.6 c 0.3,-2.1 1,-3.1 2.4,-3.1 z"
   id="path78" />
	<path
   class="st1"
   d="m 182.5,104.3 h 0.5 c 1.2,0 2.2,0.9 3,2.7 1.4,1.5 11.3,14.3 29.9,38.3 0.2,0 0.3,0.1 0.3,0.4 l 0.1,0.1 h 0.1 v -39.1 c 0.3,-1.7 1.1,-2.5 2.5,-2.5 h 0.4 c 1.4,0 2.2,0.9 2.5,2.6 v 46.8 c 0,1.5 -1,2.4 -2.9,2.7 -1,0 -2.6,-1.6 -4.8,-4.8 L 185.5,115 v 38.8 c 0,1.4 -0.9,2.2 -2.6,2.5 h -0.1 c -1.4,0 -2.3,-0.9 -2.6,-2.7 v -46.2 c 0.2,-2.1 1,-3.1 2.3,-3.1 z"
   id="path80" />
</g>

</svg>
