<?xml version="1.0" encoding="UTF-8" standalone="no"?>
<!-- Uploaded to: SVG Repo, www.svgrepo.com, Generator: SVG Repo Mixer Tools -->

<svg
   fill="#000000"
   width="800px"
   height="800px"
   viewBox="0 0 32 32"
   version="1.1"
   id="svg4"
   sodipodi:docname="github.svg"
   inkscape:version="1.2.2 (732a01da63, 2022-12-09)"
   xmlns:inkscape="http://www.inkscape.org/namespaces/inkscape"
   xmlns:sodipodi="http://sodipodi.sourceforge.net/DTD/sodipodi-0.dtd"
   xmlns="http://www.w3.org/2000/svg"
   xmlns:svg="http://www.w3.org/2000/svg">
  <defs
     id="defs8" />
  <sodipodi:namedview
     id="namedview6"
     pagecolor="#ffffff"
     bordercolor="#000000"
     borderopacity="0.25"
     inkscape:showpageshadow="2"
     inkscape:pageopacity="0.0"
     inkscape:pagecheckerboard="0"
     inkscape:deskcolor="#d1d1d1"
     showgrid="false"
     inkscape:zoom="0.76190756"
     inkscape:cx="53.812303"
     inkscape:cy="269.06151"
     inkscape:window-width="1920"
     inkscape:window-height="1017"
     inkscape:window-x="1072"
     inkscape:window-y="1064"
     inkscape:window-maximized="1"
     inkscape:current-layer="svg4" />
  <path
     d="M24.92 12.183c0-1.586-.604-2.864-1.585-3.83.172-.547.398-1.763-.229-3.321 0 0-1.114-.348-3.628 1.315a12.695 12.695 0 0 0-3.081-.366c-1.154 0-2.322.143-3.409.44-2.596-1.747-3.74-1.391-3.74-1.391-.748 1.847-.287 3.215-.145 3.554-.883.936-1.414 2.133-1.414 3.594 0 1.111.128 2.099.44 2.964l.325.732c.879 1.614 2.606 2.655 5.677 2.983-.434.289-.885.779-1.062 1.612-.594.28-2.475.966-3.603-.944 0 0-.633-1.148-1.842-1.235 0 0-1.174-.017-.08.722 0 0 .782.367 1.326 1.738 0 0 .705 2.342 4.114 1.593v2.417s-.076.857-.867 1.143c0 0-.469.312.034.497 0 0 2.205.174 2.205-1.604v-2.643s-.09-1.047.429-1.404v4.332s-.032 1.031-.576 1.421c0 0-.362.646.433.468 0 0 1.517-.211 1.584-1.967l.035-4.383h.363l.033 4.383c.076 1.748 1.59 1.967 1.59 1.967.793.179.429-.468.429-.468-.54-.389-.579-1.421-.579-1.421v-4.297c.52.402.436 1.369.436 1.369v2.643c0 1.777 2.2 1.604 2.2 1.604.505-.186.036-.498.036-.498-.793-.286-.867-1.143-.867-1.143v-3.461c0-1.346-.574-2.056-1.137-2.435 3.277-.318 4.845-1.368 5.572-2.99-.015.027.26-.726.26-.726.25-.859.325-1.855.325-2.963h-.002z"
     id="path2" />
  <path
     style="fill:#ffffff;stroke-width:1.3125"
     d="m 354.70182,673.82529 c -3.07034,-3.17494 -1.86345,-8.79226 3.05989,-14.24181 2.58527,-2.86159 5.98135,-8.32656 7.54685,-12.14436 2.75566,-6.72033 2.85877,-8.85812 3.23645,-67.1039 0.27358,-42.19113 -0.0261,-59.90521 -1.00312,-59.30135 -0.76629,0.47358 -2.71371,3.33115 -4.3276,6.35012 -2.84656,5.32481 -2.95419,6.94221 -3.59716,54.05138 -0.6232,45.66243 -0.82606,48.91589 -3.39692,54.48327 -6.10915,13.22977 -19.69732,21.40243 -39.67388,23.86203 -10.50544,1.29348 -12.28395,1.20759 -15.25109,-0.73656 -5.87643,-3.85039 -3.31404,-9.37258 6.69488,-14.42807 2.28112,-1.15219 5.95604,-4.28896 8.16648,-6.97061 7.26292,-8.8112 8.02971,-13.36299 8.02971,-47.66592 v -31.01935 l -9.51559,1.66991 c -31.72837,5.56811 -60.1292,-1.4164 -78.08132,-19.20223 -6.69909,-6.63703 -9.5396,-11.03456 -17.19953,-26.62732 -9.86545,-20.08241 -17.76055,-30.45173 -28.87607,-37.92548 -13.16327,-8.85058 -16.68565,-14.9556 -10.52969,-18.25018 5.02332,-2.68839 19.25529,-0.92587 28.70262,3.55462 11.41257,5.4125 19.04821,12.48179 28.69526,26.56685 13.07797,19.09435 24.70305,27.40553 42.57221,30.43637 11.29297,1.91543 22.30645,0.74601 35.55817,-3.77559 l 10.35723,-3.53399 2.86511,-8.02218 c 4.07015,-11.39628 8.67907,-18.70546 16.27561,-25.81113 7.37588,-6.89928 7.63985,-6.52242 -5.73031,-8.1811 -50.11386,-6.21704 -93.68141,-26.93441 -116.17969,-55.24611 -9.05234,-11.39143 -19.67739,-32.46665 -23.55363,-46.71958 -8.64346,-31.78205 -9.94469,-73.16012 -3.10798,-98.83151 4.26526,-16.01578 15.92952,-37.86658 26.40093,-49.45717 l 4.45839,-4.9349 -2.01939,-6.27259 c -6.93132,-21.52995 -6.12139,-48.66406 2.1843,-73.17877 2.77737,-8.19754 3.5215,-9.24214 7.10592,-9.97523 5.3056,-1.08511 18.54072,0.76063 29.86303,4.16462 12.31742,3.70317 29.93681,12.08129 46.60159,22.15931 l 13.75332,8.31732 7.2466,-1.61779 c 49.30335,-11.00691 96.42383,-11.88543 142.10115,-2.64937 l 12.7925,2.58667 12.14491,-7.32929 c 26.57871,-16.03988 47.84637,-24.12203 66.27775,-25.18692 l 12.133,-0.70099 1.89831,4.5433 c 7.55159,18.07348 10.5953,48.13398 6.86245,67.77509 l -2.07738,10.93048 9.10724,11.25809 c 13.74594,16.99236 22.85184,36.25104 27.78085,58.75561 2.8282,12.91287 2.00822,60.69169 -1.3663,79.61191 -6.38051,35.77416 -19.30382,60.52483 -40.32439,77.2291 -24.83654,19.73668 -47.56837,27.66015 -103.93426,36.22757 l -4.28777,0.65172 6.33937,6.17474 c 7.27165,7.08281 12.14251,14.85634 16.26576,25.95901 2.75582,7.42057 2.91845,10.28364 3.61548,63.64889 l 0.72985,55.87879 3.96701,7.77723 c 2.99443,5.8705 5.56868,8.8136 10.49996,12.00449 10.59668,6.85679 11.30297,7.46994 11.54849,10.02565 0.12901,1.34226 -1.38089,3.66578 -3.3552,5.16341 -3.3666,2.55375 -4.26409,2.63268 -14.44463,1.27054 -19.95185,-2.66953 -33.07796,-9.93027 -39.43266,-21.81227 -2.8099,-5.25396 -2.93022,-7.05058 -3.57214,-53.34316 -0.6298,-45.41888 -0.80952,-48.21271 -3.46154,-53.8123 -7.14082,-15.07734 -6.94481,-16.33239 -6.96924,44.62484 -0.018,44.80957 0.36107,57.40729 1.92696,64.04921 2.36728,10.04114 4.94845,15.36947 10.05396,20.75449 4.2541,4.487 5.43504,11.67559 2.27056,13.82123 -3.0458,2.06518 -14.14948,0.14057 -22.69272,-3.93334 -13.60626,-6.48824 -22.43078,-17.31104 -26.33276,-32.2957 -1.64425,-6.31435 -2.03831,-16.31014 -2.04378,-51.84356 -0.004,-24.21152 -0.38813,-49.77953 -0.85421,-56.81779 l -0.84742,-12.79682 h -3.73952 -3.73953 l -0.11078,35.76549 c -0.1818,58.72172 -1.55218,84.26038 -4.99692,93.12367 -3.9576,10.1829 -12.80767,19.69839 -22.97721,24.70484 -9.3227,4.58954 -21.45522,6.48569 -24.08683,3.76443 z"
     id="path308"
     transform="scale(0.04)" />
</svg>
