<?xml version="1.0" encoding="iso-8859-1"?>
<!-- Uploaded to: SVG Repo, www.svgrepo.com, Generator: SVG Repo Mixer Tools -->
<svg fill="#000000" height="800px" width="800px" version="1.1" id="Layer_1" xmlns="http://www.w3.org/2000/svg" xmlns:xlink="http://www.w3.org/1999/xlink" 
	 viewBox="0 0 491.52 491.52" xml:space="preserve">
<g>
	<g>
		<path d="M286.72,288.234V162.326c14.569-11.819,23.895-29.781,23.895-49.876c0-27.21-17.385-51.59-43.26-60.67l-13.63-4.785V90.13
			l-7.965,7.895l-7.96-7.895V46.995l-13.63,4.785c-25.875,9.08-43.26,33.46-43.26,60.67c0,20.093,9.324,38.055,23.89,49.874v125.911
			c-14.566,11.819-23.89,29.781-23.89,49.874c0,27.205,17.385,51.585,43.255,60.67l13.635,4.79v-43.14l7.96-7.895l7.965,7.895v43.14
			l13.635-4.79c25.87-9.085,43.255-33.465,43.255-60.67C310.615,318.016,301.289,300.053,286.72,288.234z M201.39,112.45
			c0-13.215,6.045-25.46,15.93-33.645V98.66l28.44,28.215l28.445-28.215V78.805c9.885,8.185,15.93,20.43,15.93,33.645
			c0,24.22-19.905,43.92-44.375,43.92C221.295,156.37,201.39,136.67,201.39,112.45z M266.24,173.507v103.545
			c-6.446-2.138-13.319-3.342-20.48-3.342s-14.034,1.204-20.48,3.343V173.507c6.446,2.139,13.319,3.343,20.48,3.343
			S259.794,175.646,266.24,173.507z M274.205,371.755V351.9l-28.445-28.215L217.32,351.9v19.855
			c-9.885-8.19-15.93-20.435-15.93-33.645c0-24.22,19.905-43.92,44.37-43.92c24.47,0,44.375,19.7,44.375,43.92
			C290.135,351.32,284.09,363.565,274.205,371.755z"/>
	</g>
</g>
<g>
	<g>
		<path d="M460.8,230.545V215.04C460.8,96.465,364.335,0,245.76,0S30.72,96.465,30.72,215.04v15.505
			C12.108,244.572,0,266.789,0,291.84c0,42.35,34.45,76.8,76.8,76.8h15.36v-153.6H76.8c-8.986,0-17.579,1.631-25.6,4.48v-4.48
			c0-107.28,87.28-194.56,194.56-194.56s194.56,87.28,194.56,194.56v4.48c-8.021-2.849-16.614-4.48-25.6-4.48h-15.36v153.6h15.36
			c5.259,0,10.396-0.536,15.36-1.548v62.988c0,11.295-9.185,20.48-20.48,20.48H295.073c-4.241-11.894-15.501-20.48-28.833-20.48
			h-30.72c-16.94,0-30.72,13.78-30.72,30.72s13.78,30.72,30.72,30.72h30.72c13.332,0,24.593-8.586,28.833-20.48H409.6
			c22.585,0,40.96-18.375,40.96-40.96v-70.366c24.332-12.9,40.96-38.467,40.96-67.874C491.52,266.789,479.412,244.572,460.8,230.545
			z M71.68,235.75v112.18c-28.665-2.595-51.2-26.76-51.2-56.09C20.48,262.51,43.015,238.345,71.68,235.75z M266.24,471.04h-30.72
			c-5.645,0-10.24-4.595-10.24-10.24c0-5.645,4.595-10.24,10.24-10.24h30.72c5.645,0,10.24,4.595,10.24,10.24
			C276.48,466.445,271.885,471.04,266.24,471.04z M419.84,347.93V235.75c28.665,2.595,51.2,26.76,51.2,56.09
			C471.04,321.17,448.505,345.335,419.84,347.93z"/>
	</g>
</g>
</svg>