<?xml version="1.0" encoding="UTF-8" standalone="no"?>
<!-- Generator: Adobe Illustrator 17.1.0, SVG Export Plug-In . SVG Version: 6.00 Build 0)  -->

<svg
   xmlns:dc="http://purl.org/dc/elements/1.1/"
   xmlns:cc="http://creativecommons.org/ns#"
   xmlns:rdf="http://www.w3.org/1999/02/22-rdf-syntax-ns#"
   xmlns:svg="http://www.w3.org/2000/svg"
   xmlns="http://www.w3.org/2000/svg"
   xmlns:sodipodi="http://sodipodi.sourceforge.net/DTD/sodipodi-0.dtd"
   xmlns:inkscape="http://www.inkscape.org/namespaces/inkscape"
   version="1.1"
   id="Layer_1"
   x="0px"
   y="0px"
   viewBox="0 0 300.00001 300.00001"
   enable-background="new 0 0 278.4 70.7"
   xml:space="preserve"
   sodipodi:docname="jquery.svg"
   width="300"
   height="300"
   inkscape:version="0.92.1 r15371"><metadata
     id="metadata323"><rdf:RDF><cc:Work
         rdf:about=""><dc:format>image/svg+xml</dc:format><dc:type
           rdf:resource="http://purl.org/dc/dcmitype/StillImage" /><dc:title></dc:title></cc:Work></rdf:RDF></metadata><defs
     id="defs321" /><sodipodi:namedview
     pagecolor="#ffffff"
     bordercolor="#666666"
     borderopacity="1"
     objecttolerance="10"
     gridtolerance="10"
     guidetolerance="10"
     inkscape:pageopacity="0"
     inkscape:pageshadow="2"
     inkscape:window-width="1920"
     inkscape:window-height="983"
     id="namedview319"
     showgrid="false"
     inkscape:zoom="2"
     inkscape:cx="139.2"
     inkscape:cy="135.35"
     inkscape:window-x="0"
     inkscape:window-y="27"
     inkscape:window-maximized="1"
     inkscape:current-layer="Layer_1" /><g
     id="g278"
     transform="matrix(1.0781204,0,0,1.0781204,-0.01335353,111.88844)"><g
       id="g276"><path
         d="m 107.2,63 c 0,0.6 -0.1,1.2 -0.1,1.9 l 2.5,-4.5 -0.3,-1.5 2.5,-0.4 0.9,6.3 1.1,-3.9 c 0.1,-0.4 0.1,-0.7 0.1,-1 0,-0.3 0,-0.6 -0.1,-1 l 2.6,-0.5 c 0.1,0.5 0.2,1 0.1,1.5 0,0.6 -0.2,1.3 -0.6,2.4 l -2.1,5.7 h -3.1 L 110,63.8 107.6,68 h -3 c 0.1,-3.9 0,-6.4 -0.3,-9 l 2.6,-0.4 c 0.3,1.3 0.4,2.8 0.3,4.4 z"
         id="path242"
         inkscape:connector-curvature="0"
         style="fill:#0769ad" /><path
         d="m 123.4,60.8 c -1.2,0.6 -1.7,0.9 -2.8,1.6 l -1.2,5.5 h -2.7 l 1.9,-9.1 2.4,-0.4 -0.1,1.3 c 0.9,-0.5 1.7,-0.9 2.5,-1.3 z"
         id="path244"
         inkscape:connector-curvature="0"
         style="fill:#0769ad" /><path
         d="m 125,58.8 2.8,-0.4 -2,9.5 h -2.7 z m 0.9,-4.1 2.8,-0.4 -0.6,2.9 -2.8,0.4 z"
         id="path246"
         inkscape:connector-curvature="0"
         style="fill:#0769ad" /><path
         d="m 132.8,60.7 -1,4.6 c 0,0.1 0,0.2 0,0.2 0,0.1 0.1,0.2 0.3,0.2 0.5,0 1,-0.2 1.5,-0.4 l 0.5,1.9 c -0.8,0.4 -1.9,0.8 -3,0.8 -1.4,0 -2.1,-0.7 -2,-1.8 0,-0.1 0,-0.3 0.1,-0.4 l 1.1,-5.2 h -1.4 l 0.5,-2.2 h 1.4 l 0.5,-2.2 2.8,-0.4 -0.5,2.6 h 2.2 l -0.6,2.2 h -2.4 z"
         id="path248"
         inkscape:connector-curvature="0"
         style="fill:#0769ad" /><path
         d="m 136,61.9 c 0.5,-2.1 1.5,-3.5 4.4,-3.5 1.8,0 3.1,0.8 3,2.3 -0.1,1.8 -1,2.7 -3.3,3.3 -1.1,0.3 -1.2,0.3 -2,0.6 l -0.1,0.6 c -0.1,0.3 0,0.7 0.5,0.7 1,0 2.4,-0.5 3.7,-1 l 0.4,1.9 c -1.2,0.7 -3,1.3 -4.6,1.3 -1.9,0 -2.7,-0.8 -2.7,-2.4 0,-0.3 0.1,-0.7 0.2,-1.1 z m 4.9,-0.9 c 0,-0.3 -0.3,-0.5 -0.8,-0.5 -1,0 -1.3,0.6 -1.4,1.3 l -0.1,0.7 c 0.5,-0.1 0.7,-0.2 1.2,-0.3 0.7,-0.3 1.1,-0.6 1.1,-1.2 z"
         id="path250"
         inkscape:connector-curvature="0"
         style="fill:#0769ad" /><path
         d="m 150.4,54.8 2.8,-0.4 -2.8,13.5 h -2.7 z"
         id="path252"
         inkscape:connector-curvature="0"
         style="fill:#0769ad" /><path
         d="m 153.5,61.9 c 0.5,-2.1 1.5,-3.5 4.4,-3.5 1.8,0 3.1,0.8 3,2.3 -0.1,1.8 -1,2.7 -3.3,3.3 -1.1,0.3 -1.2,0.3 -2,0.6 l -0.1,0.6 c -0.1,0.3 0,0.7 0.5,0.7 1,0 2.4,-0.5 3.7,-1 l 0.4,1.9 c -1.2,0.7 -3,1.3 -4.6,1.3 -1.9,0 -2.7,-0.8 -2.7,-2.4 0,-0.3 0.1,-0.7 0.2,-1.1 z m 4.9,-0.9 c 0,-0.3 -0.3,-0.5 -0.8,-0.5 -1,0 -1.3,0.6 -1.4,1.3 l -0.1,0.7 c 0.5,-0.1 0.7,-0.2 1.2,-0.3 0.7,-0.3 1.1,-0.6 1.1,-1.2 z"
         id="path254"
         inkscape:connector-curvature="0"
         style="fill:#0769ad" /><path
         d="m 161.2,67.5 0.6,-2 c 0.7,0.2 1.5,0.5 2.5,0.5 0.9,0 1,-0.3 1.1,-0.7 0.1,-0.4 -0.2,-0.6 -1.2,-1.2 -1.9,-1 -2,-1.7 -1.7,-3.1 0.4,-2 1,-2.5 3.6,-2.5 0.9,0 2,0.2 2.8,0.4 l -0.5,2 c -0.7,-0.2 -1.7,-0.3 -2.3,-0.3 -0.8,0 -0.9,0.1 -1,0.6 -0.1,0.4 0,0.5 0.9,1 2.1,1.1 2.4,1.5 2.1,3 -0.5,2.1 -1.1,2.9 -3.9,2.9 -1,0 -2.2,-0.3 -3,-0.6 z"
         id="path256"
         inkscape:connector-curvature="0"
         style="fill:#0769ad" /><path
         d="m 168.9,67.5 0.6,-2 c 0.7,0.2 1.5,0.5 2.5,0.5 0.9,0 1,-0.3 1.1,-0.7 0.1,-0.4 -0.2,-0.6 -1.2,-1.2 -1.9,-1 -2,-1.7 -1.7,-3.1 0.4,-2 1,-2.5 3.6,-2.5 0.9,0 2,0.2 2.8,0.4 l -0.5,2 c -0.7,-0.2 -1.7,-0.3 -2.3,-0.3 -0.8,0 -0.9,0.1 -1,0.6 -0.1,0.4 0,0.5 0.9,1 2.1,1.1 2.4,1.5 2.1,3 -0.5,2.1 -1.1,2.9 -3.9,2.9 -1,0 -2.2,-0.3 -3,-0.6 z"
         id="path258"
         inkscape:connector-curvature="0"
         style="fill:#0769ad" /><path
         d="m 176.3,70 1.5,-2.1 h -1 l 0.7,-3.2 h 2.7 l -0.7,3.4 -2.2,2.6 z"
         id="path260"
         inkscape:connector-curvature="0"
         style="fill:#0769ad" /><path
         d="m 191,67.9 v -0.8 c -0.7,0.6 -1.7,1 -3,1 -2,0 -2.5,-1.2 -2,-3.3 l 0.5,-2.5 c 0.5,-2.2 1.1,-3.9 5,-3.9 0.3,0 0.9,0 1.1,0.1 l 0.8,-3.7 2.8,-0.4 -2.8,13.5 z m -2.5,-2.8 c -0.1,0.5 0,0.7 0.5,0.7 1,0 1.7,-0.5 2.2,-1 l 0.9,-4.1 c -0.3,-0.1 -0.7,-0.1 -1,-0.1 -1.4,0 -1.7,0.7 -1.9,1.6 z"
         id="path262"
         inkscape:connector-curvature="0"
         style="fill:#0769ad" /><path
         d="m 195.8,65 c 0,-0.2 0,-0.4 0.1,-0.7 l 0.5,-2.2 c 0.5,-2.4 1.7,-3.8 5,-3.8 2.5,0 3.6,1.4 3.5,3.1 0,0.2 0,0.4 -0.1,0.7 l -0.5,2.2 c -0.5,2.2 -1.6,3.8 -5,3.8 -2.4,0 -3.6,-1.4 -3.5,-3.1 z m 6.3,-3.3 c 0,-0.7 -0.4,-1.1 -1.3,-1.1 -1,0 -1.6,0.5 -1.8,1.4 l -0.5,2.3 c 0,0.1 0,0.3 -0.1,0.4 0,0.7 0.4,1.1 1.3,1.1 1,0 1.6,-0.5 1.8,-1.4 l 0.5,-2.3 c 0.1,-0.2 0.1,-0.3 0.1,-0.4 z"
         id="path264"
         inkscape:connector-curvature="0"
         style="fill:#0769ad" /><path
         d="m 221.3,61.6 c 0,-0.1 0,-0.2 0,-0.3 0,-0.2 -0.1,-0.3 -0.4,-0.3 -0.5,0 -1.7,0.5 -2.5,0.9 l -1.3,6 h -2.7 l 1.3,-6.3 c 0,-0.1 0,-0.2 0,-0.3 0,-0.2 -0.1,-0.3 -0.4,-0.3 -0.5,0 -1.7,0.5 -2.4,0.9 l -1.3,6 h -2.7 l 1.9,-9.1 2.4,-0.4 -0.1,1 c 1.5,-0.7 2.6,-1.1 3.7,-1.1 0.9,0 1.4,0.4 1.6,1.1 1.4,-0.8 2.7,-1.1 3.8,-1.1 1.2,0 1.7,0.7 1.6,1.9 0,0.3 0,0.7 -0.1,1.1 l -1.4,6.5 H 220 Z"
         id="path266"
         inkscape:connector-curvature="0"
         style="fill:#0769ad" /><path
         d="m 225.1,65 c 0,-0.2 0,-0.4 0.1,-0.7 l 0.5,-2.2 c 0.5,-2.4 1.7,-3.8 5,-3.8 2.5,0 3.6,1.4 3.5,3.1 0,0.2 0,0.4 -0.1,0.7 l -0.5,2.2 c -0.5,2.2 -1.6,3.8 -5,3.8 -2.4,0 -3.6,-1.4 -3.5,-3.1 z m 6.3,-3.3 c 0,-0.7 -0.4,-1.1 -1.3,-1.1 -1,0 -1.6,0.5 -1.8,1.4 l -0.5,2.3 c 0,0.1 0,0.3 -0.1,0.4 0,0.7 0.4,1.1 1.3,1.1 1,0 1.6,-0.5 1.8,-1.4 l 0.5,-2.3 c 0.1,-0.2 0.1,-0.3 0.1,-0.4 z"
         id="path268"
         inkscape:connector-curvature="0"
         style="fill:#0769ad" /><path
         d="m 241.2,60.8 c -1.2,0.6 -1.7,0.9 -2.8,1.6 l -1.2,5.5 h -2.7 l 1.9,-9.1 2.4,-0.4 -0.1,1.3 c 0.9,-0.5 1.7,-0.9 2.5,-1.3 z"
         id="path270"
         inkscape:connector-curvature="0"
         style="fill:#0769ad" /><path
         d="m 241.9,61.9 c 0.5,-2.1 1.5,-3.5 4.4,-3.5 1.8,0 3.1,0.8 3,2.3 -0.1,1.8 -1,2.7 -3.3,3.3 -1.1,0.3 -1.2,0.3 -2,0.6 l -0.1,0.6 c -0.1,0.3 0,0.7 0.5,0.7 1,0 2.4,-0.5 3.7,-1 l 0.4,1.9 c -1.2,0.7 -3,1.3 -4.6,1.3 -1.9,0 -2.7,-0.8 -2.7,-2.4 0,-0.3 0.1,-0.7 0.2,-1.1 z m 4.9,-0.9 c 0,-0.3 -0.3,-0.5 -0.8,-0.5 -1,0 -1.3,0.6 -1.4,1.3 l -0.1,0.7 c 0.5,-0.1 0.7,-0.2 1.2,-0.3 0.7,-0.3 1,-0.6 1.1,-1.2 z"
         id="path272"
         inkscape:connector-curvature="0"
         style="fill:#0769ad" /><path
         d="m 250.4,64.7 h 2.7 l -0.7,3.2 h -2.7 z"
         id="path274"
         inkscape:connector-curvature="0"
         style="fill:#0769ad" /></g></g><path
     d="m 3.544444,126.33525 c -4.959354,7.00778 -4.31248183,16.27962 -0.5390603,23.71865 0,0.21562 0.1078121,0.43125 0.2156241,0.64687 0,0.10781 0.1078121,0.21563 0.2156241,0.32344 0,0.10781 0.1078121,0.10781 0.1078121,0.21562 0.107812,0.10781 0.107812,0.21563 0.215624,0.32344 0.1078121,0.21562 0.2156241,0.43125 0.3234362,0.64687 0.107812,0.10781 0.107812,0.21562 0.2156241,0.32344 0.107812,0.21562 0.3234361,0.43124 0.4312481,0.64687 0.1078121,0.10781 0.1078121,0.21562 0.2156241,0.32343 0.2156241,0.32344 0.4312482,0.53906 0.6468723,0.8625 0,0 0,0 0,0 0,0 0.107812,0.10781 0.107812,0.10781 0.2156241,0.21563 0.3234361,0.53906 0.5390602,0.75469 0.1078121,0.10781 0.1078121,0.21562 0.2156241,0.21562 0.2156241,0.21563 0.3234361,0.43125 0.5390602,0.64687 0.1078121,0.10782 0.1078121,0.10782 0.2156241,0.21563 0.2156241,0.32343 0.4312482,0.53906 0.7546843,0.75468 0,0 0,0 0,0 0,0 0,0 0,0 0.2156241,0.21563 0.4312482,0.53906 0.7546843,0.75469 0.1078121,0.10781 0.1078121,0.10781 0.2156241,0.21562 0.2156241,0.21562 0.3234361,0.32344 0.5390602,0.53906 0.1078121,0.10781 0.1078121,0.10781 0.2156241,0.21562 0.2156241,0.21563 0.5390606,0.43125 0.7546846,0.75469 0,0 0,0 0,0 0,0 0.107812,0.10781 0.107812,0.10781 0.215624,0.21562 0.431248,0.43125 0.754684,0.64687 0.107812,0.10781 0.215624,0.10781 0.323436,0.21563 0.215624,0.10781 0.431248,0.32343 0.646872,0.43125 0.107812,0.10781 0.215625,0.10781 0.323437,0.21562 0.215624,0.21562 0.431248,0.32344 0.646872,0.43125 0.107812,0.10781 0.107812,0.10781 0.215624,0.21562 0,0 0,0 0.107812,0 0.215624,0.10781 0.431248,0.32344 0.646872,0.43125 0.107812,0.10781 0.215624,0.10781 0.323436,0.21562 0.323436,0.21563 0.646873,0.43125 0.970309,0.64688 0.107812,0 0.215624,0.10781 0.323436,0.10781 0.215624,0.10781 0.53906,0.32343 0.754684,0.43125 0.107812,0.10781 0.323436,0.10781 0.431248,0.21562 0.215624,0.10781 0.323436,0.21562 0.539061,0.32344 0,0 0.107812,0 0.107812,0.10781 0.107812,0 0.107812,0.10781 0.215624,0.10781 0.323436,0.10781 0.53906,0.32344 0.862496,0.43125 0.107812,0 0.107812,0 0.215624,0.10781 0.323436,0.10781 0.646872,0.32344 0.970308,0.43125 0.107813,0 0.107813,0.10781 0.215625,0.10781 0.323436,0.10781 0.646872,0.21563 0.970308,0.32344 0,0 0.107812,0 0.107812,0 0.323436,0.10781 0.754684,0.21562 1.07812,0.32343 0.107812,0 0.215625,0.10782 0.215625,0.10782 0.323436,0.10781 0.754684,0.21562 1.07812,0.32343 23.718649,4.31248 30.61862,-14.23119 30.61862,-14.23119 -5.82185,7.54684 -16.063994,9.48746 -25.87489,7.33122 -0.323436,-0.10781 -0.754684,-0.21562 -1.078121,-0.32344 -0.107812,0 -0.215624,0 -0.215624,-0.10781 -0.323436,-0.10781 -0.754684,-0.21562 -1.07812,-0.32343 0,0 -0.107812,0 -0.107812,-0.10782 -0.323436,-0.10781 -0.646872,-0.21562 -0.970309,-0.32343 -0.107812,0 -0.215624,-0.10781 -0.215624,-0.10781 -0.323436,-0.10782 -0.646872,-0.32344 -0.970308,-0.43125 -0.107812,0 -0.107812,-0.10781 -0.215624,-0.10781 -0.323436,-0.10782 -0.53906,-0.21563 -0.862496,-0.43125 -0.107812,0 -0.107812,-0.10781 -0.215625,-0.10781 -0.215624,-0.10782 -0.431248,-0.21563 -0.646872,-0.32344 -0.107812,-0.10781 -0.323436,-0.10781 -0.431248,-0.21562 -0.215624,-0.10782 -0.53906,-0.32344 -0.754684,-0.43125 -0.107812,-0.10781 -0.215624,-0.10781 -0.215624,-0.10781 -0.323436,-0.21563 -0.646873,-0.43125 -0.970309,-0.64688 -0.107812,-0.10781 -0.215624,-0.10781 -0.323436,-0.21562 -0.215624,-0.10781 -0.53906,-0.32344 -0.754684,-0.43125 -0.107812,-0.10781 -0.107812,-0.10781 -0.215624,-0.21562 -0.215624,-0.10782 -0.431248,-0.32344 -0.646872,-0.53906 -0.107813,-0.10782 -0.215625,-0.10782 -0.323437,-0.21563 -0.215624,-0.10781 -0.431248,-0.32343 -0.646872,-0.43125 -0.107812,-0.10781 -0.215624,-0.10781 -0.323436,-0.21562 -0.215624,-0.21562 -0.53906,-0.43125 -0.754684,-0.64687 0,0 -0.107812,0 -0.107812,-0.10781 -0.215624,-0.21563 -0.539061,-0.53906 -0.754685,-0.75469 -0.107812,-0.10781 -0.107812,-0.10781 -0.215624,-0.21562 -0.215624,-0.21563 -0.431248,-0.32344 -0.53906,-0.53906 -0.107812,-0.10781 -0.107812,-0.10781 -0.215624,-0.21563 -0.215624,-0.21562 -0.431248,-0.53906 -0.754684,-0.75468 0,0 0,0 0,0 -0.215624,-0.21563 -0.431249,-0.53906 -0.754685,-0.8625 -0.107812,-0.10781 -0.107812,-0.10781 -0.215624,-0.21562 -0.215624,-0.21563 -0.323436,-0.43125 -0.53906,-0.64687 -0.107812,-0.10782 -0.107812,-0.10782 -0.215624,-0.21563 -0.323436,-0.10781 -0.53906,-0.43125 -0.754684,-0.64687 -5.3906025,-7.33122 -7.3312193,-17.57336 -3.0187375,-25.87489"
     id="path280"
     inkscape:connector-curvature="0"
     style="fill:#0769ad;stroke-width:1.07812047" /><path
     d="m 18.745942,120.40559 c -3.557797,5.17498 -3.342173,11.96713 -0.53906,17.35774 0.431248,0.86249 0.970308,1.8328 1.61718,2.58748 0.539061,0.75469 1.078121,1.61719 1.832805,2.26406 0.215624,0.32343 0.53906,0.53906 0.754684,0.86249 0.107813,0.10782 0.107813,0.10782 0.215625,0.21563 0.215624,0.21562 0.53906,0.53906 0.862496,0.75468 0,0 0,0 0,0 0,0 0,0 0,0 0.323436,0.32344 0.646872,0.53906 0.970308,0.75469 0.107812,0.10781 0.107812,0.10781 0.215624,0.21562 0.323437,0.21563 0.646873,0.53906 0.970309,0.75469 0,0 0,0 0,0 0.107812,0.10781 0.323436,0.21562 0.431248,0.32343 0.107812,0 0.107812,0.10781 0.215624,0.10781 0.215624,0.10782 0.53906,0.32344 0.754684,0.43125 0,0 0.107812,0 0.107812,0.10781 0.215624,0.10782 0.431249,0.21563 0.646873,0.32344 0.107812,0 0.107812,0.10781 0.215624,0.10781 0.107812,0.10781 0.323436,0.10781 0.431248,0.21563 0,0 0,0 0.107812,0 0.323436,0.10781 0.646872,0.32343 0.970308,0.43124 0.107812,0 0.107812,0.10782 0.215624,0.10782 0.215624,0.10781 0.539061,0.21562 0.754685,0.32343 0.107812,0 0.215624,0.10781 0.323436,0.10781 0.215624,0.10782 0.431248,0.21563 0.754684,0.21563 0.107812,0 0.215624,0.10781 0.323436,0.10781 0.323436,0.10781 0.646873,0.21562 1.078121,0.32344 18.328047,3.01873 22.532717,-11.10464 22.532717,-11.10464 -3.773422,5.49841 -11.212453,8.0859 -19.082732,6.03747 -0.323436,-0.10781 -0.646872,-0.21562 -1.07812,-0.32344 -0.107812,0 -0.215624,-0.10781 -0.323436,-0.10781 -0.215625,-0.10781 -0.539061,-0.10781 -0.754685,-0.21562 -0.107812,0 -0.215624,-0.10781 -0.323436,-0.10781 -0.215624,-0.10782 -0.53906,-0.21563 -0.754684,-0.32344 -0.107812,0 -0.107812,-0.10781 -0.215624,-0.10781 -0.323436,-0.10781 -0.646873,-0.32344 -0.970309,-0.43125 -0.107812,-0.10781 -0.323436,-0.21562 -0.431248,-0.21562 -0.107812,0 -0.215624,-0.10782 -0.323436,-0.10782 -0.215624,-0.10781 -0.431248,-0.21562 -0.646872,-0.32343 0,0 -0.107812,0 -0.107812,-0.10781 -0.215624,-0.10782 -0.539061,-0.32344 -0.754685,-0.43125 -0.107812,0 -0.107812,-0.10781 -0.215624,-0.10781 -0.107812,-0.10782 -0.323436,-0.21563 -0.431248,-0.32344 -0.323436,-0.21562 -0.646872,-0.43125 -0.970308,-0.75469 -0.107812,-0.10781 -0.107812,-0.10781 -0.215624,-0.21562 -3.449986,-2.6953 -6.145287,-6.46872 -7.439031,-10.67339 -1.401557,-4.4203 -1.078121,-9.27184 1.293744,-13.26088"
     id="path282"
     inkscape:connector-curvature="0"
     style="fill:#0769ad;stroke-width:1.07812047" /><path
     d="m 31.575575,115.98529 c -2.048429,3.12655 -2.264053,6.89997 -0.862496,10.34996 1.509368,3.66561 4.635918,6.46872 8.301527,7.76247 0.107812,0.10781 0.323436,0.10781 0.431248,0.10781 0.107812,0 0.107812,0 0.215624,0.10781 0.215624,0.10781 0.431249,0.10781 0.646873,0.21562 10.134332,1.94062 12.829633,-5.17497 13.584317,-6.25309 -2.371865,3.44998 -6.468723,4.31248 -11.428077,3.12655 -0.431248,-0.10782 -0.862496,-0.21563 -1.185932,-0.32344 -0.431248,-0.21562 -0.970308,-0.32344 -1.401557,-0.53906 -0.862496,-0.43125 -1.724992,-0.97031 -2.479677,-1.50937 -4.420293,-3.34217 -7.223406,-9.8109 -4.312481,-14.98587"
     id="path284"
     inkscape:connector-curvature="0"
     style="fill:#0769ad;stroke-width:1.07812047" /><path
     d="m 266.2824,130.43211 0.43125,1.72499 c 0.10781,0.43125 -0.21563,0.8625 -0.64688,0.8625"
     id="path286"
     inkscape:connector-curvature="0"
     style="fill:#333333;stroke-width:1.07812047" /><path
     d="m 234.37003,127.52118 c -0.10781,0.43125 -0.21562,1.07812 -0.32343,1.40156 l -3.5578,16.38743 3.66561,-17.24993 z"
     id="path288"
     inkscape:connector-curvature="0"
     style="fill:#333333;stroke-width:1.07812047" /><polygon
     points="118.2,31.1 120,24.7 "
     id="polygon290"
     style="fill:#333333"
     transform="matrix(1.0781204,0,0,1.0781204,-0.01335353,111.88844)" /><path
     d="m 266.71365,132.1571 -0.97031,-4.31248 c -0.75469,-3.12655 -3.01874,-4.52811 -8.0859,-4.52811 h -21.34679 c -0.53906,0 -0.97031,0.21563 -1.07812,0.75469 l -8.0859,38.38108 c -0.10781,0.53906 -0.10781,0.8625 -0.10781,1.07812 0.10781,0.21563 0.9703,0.21563 1.50936,0.21563 h 7.43903 c 0.53906,0 1.40156,0 1.61719,-0.10781 0.32343,-0.10782 0.43124,-0.8625 0.53906,-1.29375 l 2.58748,-13.4765 3.23437,-14.98588 c 0.10781,-0.43125 0.53906,-0.86249 1.07812,-0.86249 h 21.13116 c 0.32343,0 0.64687,-0.43125 0.53906,-0.8625"
     id="path292"
     inkscape:connector-curvature="0"
     style="fill:#333333;stroke-width:1.07812047" /><path
     d="m 296.79321,116.52435 c -0.53906,0 -9.37965,0 -9.37965,0 -0.53906,0 -1.07812,0.53906 -1.40156,0.97031 l -16.49524,24.1499 c -0.32344,0.43125 -0.64687,0.43125 -0.75468,-0.10781 l -1.18594,-5.28279 c -0.10781,-0.43125 -0.64687,-0.8625 -1.07812,-0.8625 h -10.56558 c -0.53906,0 -0.75468,0.43125 -0.64687,0.8625 l 4.74373,16.60305 c 0.10781,0.43125 0.10781,1.29375 0,1.72499 l -2.26405,8.40934 c -0.10781,0.43125 0.21562,0.64688 0.64687,0.64688 h 10.45777 c 0.53906,0 0.97031,-0.10782 1.07812,-0.64688 l 2.26405,-8.51715 c 0.10781,-0.43125 0.43125,-1.07812 0.75469,-1.50937 l 26.84519,-35.57797 c 0.32344,-0.43125 0.21563,-0.8625 -0.21562,-0.8625 z"
     id="path294"
     inkscape:connector-curvature="0"
     style="fill:#333333;stroke-width:1.07812047" /><path
     d="m 186.6093,123.31651 h -9.59527 c -0.53906,0 -0.97031,0.21563 -1.07812,0.64687 l -3.12655,14.77025 -3.12655,14.12338 c -0.10781,0.43125 -0.53906,0.43125 -1.07812,0.43125 h -6.2531 c -6.2531,0 -5.49841,-3.88123 -4.20467,-9.8109 0,-0.10781 3.98905,-19.51398 3.98905,-19.51398 0.10781,-0.43124 -0.21563,-0.64687 -0.75469,-0.64687 h -9.05621 c -0.53906,0 -0.97031,0.21563 -1.07812,0.64687 l -3.66561,19.51398 c -1.83281,10.56558 -1.83281,19.83742 10.34996,20.16086 0.21562,0 19.29835,0 19.29835,0 0.53906,0 0.97031,-0.21563 1.07812,-0.64688 l 4.20467,-19.62179 4.09686,-19.62179 c 0,0 0.21562,-0.43125 0,-0.43125 z"
     id="path296"
     inkscape:connector-curvature="0"
     style="fill:#333333;stroke-width:1.07812047" /><path
     d="M 91.519071,123.31651 H 81.276927 c -0.53906,0 -0.970308,0.10781 -1.07812,0.64687 l -1.832805,7.9781 c -0.107812,0.43124 0.215624,0.86249 0.754684,0.86249 h 9.810896 c 0.53906,0 0.970308,-0.43125 1.07812,-0.97031 l 1.724993,-8.0859 c 0,0 0.215624,-0.43125 -0.215624,-0.43125 z"
     id="path298"
     inkscape:connector-curvature="0"
     style="fill:#333333;stroke-width:1.07812047" /><path
     d="m 78.473814,135.39146 c -0.53906,0 -0.970309,0.43125 -1.078121,0.8625 l -1.401556,6.14528 -3.126549,14.12338 c 0,0 -1.617181,7.43903 -1.832805,7.97809 0,0 -1.401557,5.3906 -4.635918,5.17498 -1.509369,-0.10781 -3.234361,-0.43125 -3.234361,-0.43125 v 0 c -0.970309,-0.32343 -0.970309,0.64687 -1.078121,1.18593 l -2.048428,8.73278 c -0.107813,0.43125 0.215624,0.8625 0.646872,0.97031 0,0 4.420294,0.64687 7.546843,0.64687 h 0.53906 c 7.654655,0 11.751513,-4.5281 14.339002,-16.81868 l 3.018737,-14.339 2.803113,-13.26088 c 0.107812,-0.43125 -0.215624,-0.97031 -0.646872,-0.97031"
     id="path300"
     inkscape:connector-curvature="0"
     style="fill:#333333;stroke-width:1.07812047" /><path
     d="m 210.7592,123.2087 c -17.24993,0 -21.34679,10.67339 -23.61084,21.13116 -2.26405,10.7812 -2.04843,19.29836 15.74056,19.29836 h 0.64687 c 7.11559,0 15.63275,0 15.63275,0 0.43124,0 0.9703,-0.43125 1.07812,-0.97031 l 1.72499,-6.79216 c 0.10781,-0.43125 -0.21562,-0.64687 -0.75469,-0.64687 h -16.06399 c -5.82185,0 -7.87028,-1.83281 -7.65465,-5.82185 0,-0.43125 0.53906,-1.61718 0.9703,-1.61718 h 24.68896 c 1.07812,0 1.07812,-0.64688 1.07812,-0.64688 2.6953,-11.21245 2.80312,-23.93427 -13.4765,-23.93427 m 4.5281,16.92649 c 0,0.53906 -1.72499,0.43125 -1.72499,0.43125 l -13.36869,-0.10781 c -0.43125,0 -0.64688,-0.64688 -0.64688,-1.07812 0,0 0,-0.53906 0.10782,-0.64688 1.07812,-3.55779 4.09685,-5.60622 9.05621,-5.60622 5.49841,0 6.68434,2.6953 6.68434,5.82185"
     id="path302"
     inkscape:connector-curvature="0"
     style="fill:#333333;stroke-width:1.07812047" /><path
     d="m 136.36889,152.53358 c 0,0 4.85154,-11.75152 5.92966,-18.43586 1.50937,-9.05622 -3.01874,-22.20928 -20.5921,-22.20928 -17.35774,0 -24.904589,12.50619 -27.815514,26.19832 -2.910925,13.69213 0.862496,25.65927 18.220244,25.55146 h 26.41395 c 0.53906,0 0.97031,-0.43125 1.07812,-0.8625 l 2.26405,-8.51715 c 0.10781,-0.43125 -0.21562,-0.8625 -0.64687,-0.8625 h -2.15624 -2.15624 c -0.43125,0 -0.64688,-0.32343 -0.64688,-0.64687 0.10782,0 0.10782,-0.10781 0.10782,-0.21562 m -9.05621,-7.1156 -1.94062,6.79216 c -0.10781,0.43125 -0.64687,0.75468 -1.18593,0.75468 h -10.24215 c -7.76247,0 -9.70308,-6.03747 -7.76247,-14.98587 1.94062,-9.16402 5.60623,-14.77025 13.26089,-15.41712 10.45776,-0.75469 12.61401,6.57653 10.02652,15.09368 z"
     id="path304"
     inkscape:connector-curvature="0"
     style="fill:#333333;stroke-width:1.07812047" /><g
     id="g306"
     transform="translate(0,229.3)" /><g
     id="g308"
     transform="translate(0,229.3)" /><g
     id="g310"
     transform="translate(0,229.3)" /><g
     id="g312"
     transform="translate(0,229.3)" /><g
     id="g314"
     transform="translate(0,229.3)" /><g
     id="g316"
     transform="translate(0,229.3)" /></svg>