<?xml version="1.0" encoding="UTF-8" standalone="no"?>
<!-- Generator: Adobe Illustrator 15.1.0, SVG Export Plug-In . SVG Version: 6.00 Build 0)  -->

<svg
   version="1.1"
   id="Layer_1"
   x="0px"
   y="0px"
   width="450"
   height="450"
   viewBox="0 0 450 450"
   enable-background="new 0 0 325 450"
   xml:space="preserve"
   sodipodi:docname="js.svg"
   inkscape:version="1.2.2 (732a01da63, 2022-12-09)"
   xmlns:inkscape="http://www.inkscape.org/namespaces/inkscape"
   xmlns:sodipodi="http://sodipodi.sourceforge.net/DTD/sodipodi-0.dtd"
   xmlns="http://www.w3.org/2000/svg"
   xmlns:svg="http://www.w3.org/2000/svg"><defs
   id="defs1679" /><sodipodi:namedview
   id="namedview1677"
   pagecolor="#ffffff"
   bordercolor="#000000"
   borderopacity="0.25"
   inkscape:showpageshadow="2"
   inkscape:pageopacity="0.0"
   inkscape:pagecheckerboard="0"
   inkscape:deskcolor="#d1d1d1"
   showgrid="false"
   inkscape:zoom="1.86"
   inkscape:cx="62.903226"
   inkscape:cy="225.26882"
   inkscape:window-width="1920"
   inkscape:window-height="1017"
   inkscape:window-x="1358"
   inkscape:window-y="32"
   inkscape:window-maximized="1"
   inkscape:current-layer="Layer_1" />
<g
   id="g1674"
   transform="translate(62.5)">
	<polygon
   fill="#efc725"
   points="162.318,434.975 40.845,401.254 13.775,97.632 311.225,97.632 284.127,401.205 "
   id="polygon1650" />
	<polygon
   fill="#fbde34"
   points="162.25,408.787 260.678,381.5 283.836,122.083 162.25,122.083 "
   id="polygon1652" />
	<polygon
   fill="#ebebeb"
   points="97.756,290.575 80.527,290.575 85.744,349.043 162.021,370.219 162.193,370.17 162.193,331.426 162.031,331.473 120.559,320.272 117.906,290.575 "
   id="polygon1654" />
	<polygon
   fill="#ebebeb"
   points="167.312,175.177 167.209,136.454 93.065,136.454 90.311,163.903 81.559,261.938 80.651,271.937 90.686,271.937 167.209,271.937 167.209,234.7 121.355,234.7 126.732,176.258 "
   id="polygon1656" />
	<polygon
   fill="#ffffff"
   points="231.393,216.079 248.623,216.079 242.109,144.133 167.129,136.437 166.957,136.485 166.957,175.229 167.12,175.183 207.791,177.632 211.242,216.079 "
   id="polygon1658" />
	<polyline
   fill="#ffffff"
   points="244.784,175.343 241.593,136.454 162.99,136.454 162.99,160.606 162.99,175.246 162.99,175.343    244.784,175.343  "
   id="polyline1660" />
	<polygon
   fill="#ffffff"
   points="162.064,331.459 162.064,370.201 238.404,349.043 238.963,342.752 247.715,244.717 248.623,234.718 238.588,234.718 162.064,234.718 162.064,271.954 207.918,271.954 203.596,320.247 "
   id="polygon1662" />
	<path
   fill="#ffffff"
   d="M 240,173.693"
   id="path1664" />
	<g
   id="g1670">
		<polygon
   fill="#151515"
   points="163.049,71.691 163.049,56.165 188.719,56.165 163.049,28.306 163.049,15.025 214.945,15.025 214.945,30.571 190.256,30.571 215.932,58.431 215.932,71.691 "
   id="polygon1666" />
		<path
   fill="#020202"
   d="M 153.631,15.05 V 71.667 H 108.088 V 52.953 h 26.613 V 15.05 h 18.928 z"
   id="path1668" />
	</g>
	<path
   fill="#ffffff"
   d="M 239.51,173.693"
   id="path1672" />
</g>
</svg>
