<?xml version="1.0" encoding="UTF-8" standalone="no"?>
<!-- Generator: Adobe Illustrator 15.1.0, SVG Export Plug-In . SVG Version: 6.00 Build 0)  -->

<svg
   xmlns:dc="http://purl.org/dc/elements/1.1/"
   xmlns:cc="http://creativecommons.org/ns#"
   xmlns:rdf="http://www.w3.org/1999/02/22-rdf-syntax-ns#"
   xmlns:svg="http://www.w3.org/2000/svg"
   xmlns="http://www.w3.org/2000/svg"
   xmlns:sodipodi="http://sodipodi.sourceforge.net/DTD/sodipodi-0.dtd"
   xmlns:inkscape="http://www.inkscape.org/namespaces/inkscape"
   version="1.1"
   id="Layer_1"
   x="0px"
   y="0px"
   width="300"
   height="300"
   viewBox="0 0 300 300"
   enable-background="new 0 0 325 450"
   xml:space="preserve"
   sodipodi:docname="js.svg"
   inkscape:version="0.92.1 r15371"><metadata
     id="metadata33"><rdf:RDF><cc:Work
         rdf:about=""><dc:format>image/svg+xml</dc:format><dc:type
           rdf:resource="http://purl.org/dc/dcmitype/StillImage" /><dc:title /></cc:Work></rdf:RDF></metadata><defs
     id="defs31" /><sodipodi:namedview
     pagecolor="#ffffff"
     bordercolor="#666666"
     borderopacity="1"
     objecttolerance="10"
     gridtolerance="10"
     guidetolerance="10"
     inkscape:pageopacity="0"
     inkscape:pageshadow="2"
     inkscape:window-width="1920"
     inkscape:window-height="983"
     id="namedview29"
     showgrid="false"
     inkscape:zoom="2.11"
     inkscape:cx="252.76195"
     inkscape:cy="171.45039"
     inkscape:window-x="0"
     inkscape:window-y="27"
     inkscape:window-maximized="1"
     inkscape:current-layer="Layer_1" /><g
     id="g26"
     transform="matrix(0.71437076,0,0,0.71437076,33.914751,-10.733421)"><polygon
       points="311.225,97.632 284.127,401.205 162.318,434.975 40.845,401.254 13.775,97.632 "
       id="polygon2"
       style="fill:#efc725" /><polygon
       points="162.25,122.083 162.25,408.787 260.678,381.5 283.836,122.083 "
       id="polygon4"
       style="fill:#fbde34" /><polygon
       points="162.021,370.219 162.193,370.17 162.193,331.426 162.031,331.473 120.559,320.272 117.906,290.575 97.756,290.575 80.527,290.575 85.744,349.043 "
       id="polygon6"
       style="fill:#ebebeb" /><polygon
       points="90.311,163.903 81.559,261.938 80.651,271.937 90.686,271.937 167.209,271.937 167.209,234.7 121.355,234.7 126.732,176.258 167.312,175.177 167.209,136.454 93.065,136.454 "
       id="polygon8"
       style="fill:#ebebeb" /><polygon
       points="167.129,136.437 166.957,136.485 166.957,175.229 167.12,175.183 207.791,177.632 211.242,216.079 231.393,216.079 248.623,216.079 242.109,144.133 "
       id="polygon10"
       style="fill:#ffffff" /><polyline
       points="244.784,175.343 241.593,136.454 162.99,136.454 162.99,160.606 162.99,175.246 162.99,175.343    244.784,175.343  "
       id="polyline12"
       style="fill:#ffffff" /><polygon
       points="238.963,342.752 247.715,244.717 248.623,234.718 238.588,234.718 162.064,234.718 162.064,271.954 207.918,271.954 203.596,320.247 162.064,331.459 162.064,370.201 238.404,349.043 "
       id="polygon14"
       style="fill:#ffffff" /><path
       d="M 240,173.693"
       id="path16"
       inkscape:connector-curvature="0"
       style="fill:#ffffff" /><g
       id="g22"><polygon
         points="214.945,15.025 214.945,30.571 190.256,30.571 215.932,58.431 215.932,71.691 163.049,71.691 163.049,56.165 188.719,56.165 163.049,28.306 163.049,15.025 "
         id="polygon18"
         style="fill:#ffffff;fill-opacity:1"
         transform="translate(0.4900017,13.268562)" /><path
         d="m 154.121,28.318562 v 56.617 h -45.543 v -18.714 h 26.613 v -37.903 h 18.928 z"
         id="path20"
         inkscape:connector-curvature="0"
         style="fill:#ffffff;fill-opacity:1" /></g><path
       d="M 239.51,173.693"
       id="path24"
       inkscape:connector-curvature="0"
       style="fill:#ffffff" /></g></svg>