<?xml version="1.0" encoding="iso-8859-1"?>
<!-- Uploaded to: SVG Repo, www.svgrepo.com, Generator: SVG Repo Mixer Tools -->
<svg fill="#000000" height="800px" width="800px" version="1.1" id="Layer_1" xmlns="http://www.w3.org/2000/svg" xmlns:xlink="http://www.w3.org/1999/xlink" 
	 viewBox="0 0 512.004 512.004" xml:space="preserve">
<g>
	<g>
		<path d="M363.55,248h-89.596c-2.016-4-5.952-8.672-9.952-10.692v-29.692c0-4.42-3.584-8-8-8c-4.42,0-8,3.58-8,8v29.692
			c-4,2.02-8.64,6.692-10.656,10.692h-89.712c-13.232,0-23.632,10.384-23.632,23.616v32.5c0,4.416,3.58,8,8,8c4.416,0,8-3.584,8-8
			v-32.5c0-4.412,3.22-7.616,7.632-7.616h89.712c3.092,8,10.124,12,18.304,12s15.212-4,18.304-12h89.592
			c4.408,0,8.456,3.204,8.456,7.616v32.5c0,4.416,3.58,8,8,8c4.416,0,8-3.584,8-8v-32.5C388.002,258.384,376.782,248,363.55,248z"/>
	</g>
</g>
<g>
	<g>
		<path d="M219.386,324h-175.5c-8.828,0-15.884,6.544-15.884,15.368V467.12c0,8.816,7.056,16.88,15.884,16.88h56.116v12h-8.616
			c-4.42,0-8,3.58-8,8c0,4.416,3.58,8,8,8h80.5c4.416,0,8-3.584,8-8c0-4.42-3.584-8-8-8h-7.884v-12h55.384
			c8.82,0,16.616-8.064,16.616-16.884V339.368C236.002,330.544,228.206,324,219.386,324z M219.362,448H44.002V340h175.384
			L219.362,448z"/>
	</g>
</g>
<g>
	<g>
		<path d="M467.298,324h-175.5c-8.82,0-15.796,6.544-15.796,15.368V467.12c0,8.82,6.976,16.884,15.796,16.884h56.204v12h-8.704
			c-4.416,0-8,3.58-8,8c0,4.416,3.584,8,8,8h80.5c4.42,0,8-3.584,8-8c0-4.42-3.58-8-8-8h-7.796v-12h55.296
			c8.828,0,16.704-8.064,16.704-16.884V339.368C484.002,330.544,476.126,324,467.298,324z M467.282,448h-175.28V340h175.296
			L467.282,448z"/>
	</g>
</g>
<g>
	<g>
		<path d="M343.582,0h-175.5c-8.824,0-16.08,6.788-16.08,15.612v127.752c0,8.824,7.256,16.636,16.08,16.636h55.92v12h-8.42
			c-4.416,0-8,3.584-8,8s3.584,8,8,8h80.5c4.42,0,8-3.584,8-8s-3.58-8-8-8h-8.08v-12h55.58c8.828,0,16.42-7.812,16.42-16.636V15.612
			C360.002,6.788,352.41,0,343.582,0z M343.566,124H168.002V16h175.58L343.566,124z"/>
	</g>
</g>
</svg>