<?xml version="1.0" encoding="UTF-8" standalone="no"?>
<!-- Generator: Adobe Illustrator 15.0.2, SVG Export Plug-In . SVG Version: 6.00 Build 0)  -->

<svg
   xmlns:dc="http://purl.org/dc/elements/1.1/"
   xmlns:cc="http://creativecommons.org/ns#"
   xmlns:rdf="http://www.w3.org/1999/02/22-rdf-syntax-ns#"
   xmlns:svg="http://www.w3.org/2000/svg"
   xmlns="http://www.w3.org/2000/svg"
   xmlns:sodipodi="http://sodipodi.sourceforge.net/DTD/sodipodi-0.dtd"
   xmlns:inkscape="http://www.inkscape.org/namespaces/inkscape"
   version="1.1"
   x="0px"
   y="0px"
   width="300"
   height="300"
   viewBox="0 0 300 299.99999"
   enable-background="new 0 0 202 223.667"
   xml:space="preserve"
   id="svg30"
   sodipodi:docname="symfony_white.svg"
   inkscape:version="0.92.1 r15371"><metadata
     id="metadata36"><rdf:RDF><cc:Work
         rdf:about=""><dc:format>image/svg+xml</dc:format><dc:type
           rdf:resource="http://purl.org/dc/dcmitype/StillImage" /><dc:title></dc:title></cc:Work></rdf:RDF></metadata><defs
     id="defs34" /><sodipodi:namedview
     pagecolor="#ffffff"
     bordercolor="#666666"
     borderopacity="1"
     objecttolerance="10"
     gridtolerance="10"
     guidetolerance="10"
     inkscape:pageopacity="0"
     inkscape:pageshadow="2"
     inkscape:window-width="1920"
     inkscape:window-height="983"
     id="namedview32"
     showgrid="false"
     inkscape:zoom="1.05514"
     inkscape:cx="187.24448"
     inkscape:cy="111.8335"
     inkscape:window-x="0"
     inkscape:window-y="27"
     inkscape:window-maximized="1"
     inkscape:current-layer="svg30"
     inkscape:pagecheckerboard="true" /><g
     id="compacte"
     transform="matrix(1.3412796,0,0,1.3412796,14.53076,2.8596222e-6)"><g
       id="g25"><path
         d="m 99.895,28.369 c -30.973,0 -56.08,25.108 -56.08,56.079 0,30.977 25.107,56.088 56.08,56.088 30.976,0 56.084,-25.111 56.084,-56.088 0,-30.97 -25.109,-56.079 -56.084,-56.079 z m 30.246,32.46 c -2.597,0.09 -4.39,-1.462 -4.471,-3.818 -0.029,-0.864 0.194,-1.62 0.786,-2.504 0.579,-1.134 0.703,-1.264 0.688,-1.757 -0.053,-1.485 -2.295,-1.541 -2.909,-1.512 -8.419,0.278 -10.638,11.64 -12.437,20.878 l -0.881,4.872 c 4.848,0.709 8.289,-0.165 10.209,-1.407 2.703,-1.755 -0.756,-3.558 -0.32,-5.553 0.442,-2.034 2.292,-3.016 3.763,-3.057 2.058,-0.051 3.526,2.084 3.479,4.251 -0.073,3.582 -4.825,8.503 -14.329,8.302 -1.158,-0.027 -2.225,-0.108 -3.217,-0.228 l -1.793,9.897 c -1.605,7.496 -3.74,17.736 -11.371,26.672 -6.555,7.792 -13.209,9.004 -16.188,9.104 -5.574,0.188 -9.27,-2.783 -9.4,-6.75 -0.129,-3.84 3.268,-5.936 5.496,-6.011 2.975,-0.099 5.033,2.056 5.111,4.54 0.076,2.104 -1.021,2.76 -1.748,3.156 -0.484,0.39 -1.215,0.787 -1.188,1.652 0.018,0.372 0.416,1.224 1.654,1.186 2.355,-0.083 3.92,-1.248 5.014,-2.026 5.43,-4.525 7.52,-12.409 10.256,-26.761 l 0.574,-3.481 c 0.934,-4.667 1.969,-9.872 3.547,-15.059 -3.828,-2.882 -6.121,-6.454 -11.271,-7.851 -3.527,-0.958 -5.68,-0.145 -7.191,1.768 -1.791,2.266 -1.197,5.214 0.533,6.942 l 2.859,3.163 c 3.506,4.05 5.422,7.202 4.701,11.441 -1.145,6.768 -9.207,11.961 -18.742,9.026 -8.137,-2.507 -9.656,-8.268 -8.68,-11.441 0.861,-2.793 3.08,-3.321 5.252,-2.655 2.324,0.719 3.234,3.544 2.57,5.713 -0.074,0.232 -0.193,0.619 -0.438,1.14 -0.27,0.597 -0.77,1.122 -0.984,1.821 -0.523,1.703 1.812,2.914 3.439,3.413 3.641,1.118 7.191,-0.784 8.092,-3.731 0.838,-2.706 -0.875,-4.595 -1.584,-5.319 l -3.447,-3.691 c -1.576,-1.756 -5.047,-6.653 -3.354,-12.151 0.652,-2.121 2.027,-4.37 4.02,-5.859 4.211,-3.137 8.787,-3.652 13.146,-2.399 5.641,1.622 8.35,5.352 11.863,8.233 1.967,-5.769 4.691,-11.415 8.791,-16.18 3.703,-4.34 8.676,-7.484 14.373,-7.68 5.692,-0.188 9.995,2.393 10.137,6.477 0.059,1.738 -0.938,5.118 -4.41,5.234 z"
         id="path5"
         inkscape:connector-curvature="0"
         style="fill:#ffffff" /><g
         id="g23"><g
           id="g9"><path
             d="m 120.717,163.885 c 5.665,0 9.465,4.094 9.465,9.757 0,5.337 -3.873,9.758 -9.465,9.758 -5.627,0 -9.502,-4.421 -9.502,-9.758 0,-5.663 3.801,-9.757 9.502,-9.757 z m 0,16.739 c 4.019,0 5.81,-3.654 5.81,-6.982 0,-3.543 -2.155,-6.979 -5.81,-6.979 -3.689,0 -5.846,3.436 -5.846,6.979 0,3.328 1.789,6.982 5.846,6.982 z"
             id="path7"
             inkscape:connector-curvature="0"
             style="fill:#ffffff" /></g><path
           d="m 110.744,165.62 v -1.297 h -4.934 v -1.772 c 0,-2.521 0.365,-4.423 3.324,-4.423 0.057,0 0.113,0.004 0.17,0.006 0.006,0 0.006,-0.009 0.014,-0.009 0.818,0.061 1.502,-0.609 1.549,-1.43 l 0.061,-1.125 c -0.695,-0.11 -1.428,-0.22 -2.303,-0.22 -5.078,0 -6.248,2.96 -6.248,7.493 v 1.479 H 97.99 v 1.447 c 0.111,0.75 0.754,1.327 1.537,1.327 0.004,0 0.008,0.004 0.012,0.004 h 2.838 v 15.86 h 1.893 c 0.004,0 0.002,-0.002 0.006,-0.002 0.785,0 1.43,-0.589 1.535,-1.346 v -14.513 h 3.436 c 0.812,-0.024 1.46,-0.67 1.497,-1.479 z"
           id="path11"
           inkscape:connector-curvature="0"
           style="fill:#ffffff" /><path
           d="m 64.988,164.323 c -0.006,0 -0.01,0.004 -0.018,0.004 -0.725,0 -1.426,0.498 -1.73,1.17 l -4.729,14.249 h -0.072 l -4.623,-14.241 c -0.303,-0.676 -1.008,-1.178 -1.736,-1.178 -0.006,0 -0.01,-0.004 -0.018,-0.004 h -2.395 l 6.322,17.396 c 0.221,0.621 0.66,1.571 0.66,1.973 0,0.365 -1.025,4.604 -4.096,4.604 -0.076,0 -0.152,-0.008 -0.227,-0.014 -0.783,-0.043 -1.375,0.504 -1.508,1.347 l -0.092,1.189 c 0.621,0.109 1.244,0.256 2.34,0.256 4.531,0 5.883,-4.131 7.162,-7.711 l 6.871,-19.041 h -2.111 z"
           id="path13"
           inkscape:connector-curvature="0"
           style="fill:#ffffff" /><path
           d="m 43.15,168.109 c -2.838,-1.451 -5.941,-2.438 -5.996,-5.357 0.01,-3.103 2.859,-3.917 5.057,-3.914 0.008,-0.002 0.018,-0.002 0.023,-0.002 0.953,0 1.717,0.095 2.461,0.259 0.01,0 0.008,-0.012 0.02,-0.012 0.787,0.057 1.447,-0.559 1.541,-1.334 l 0.062,-1.127 c -1.439,-0.357 -2.945,-0.539 -4.254,-0.539 -4.777,0.029 -8.322,2.433 -8.334,7.018 0.006,4.009 2.709,5.562 5.615,6.97 2.85,1.37 5.971,2.502 5.998,5.81 -0.018,3.452 -3.348,4.726 -5.643,4.729 -1.344,-0.004 -2.801,-0.339 -4.029,-0.727 -0.77,-0.127 -1.4,0.553 -1.5,1.452 l -0.104,1.004 c 1.688,0.546 3.418,1.021 5.158,1.021 0,0 0.002,0 0.006,0 0.004,0 0.008,0 0.016,0 5.35,-0.039 9.508,-2.173 9.523,-7.712 -0.006,-4.274 -2.727,-6.068 -5.62,-7.539 z"
           id="path15"
           inkscape:connector-curvature="0"
           style="fill:#ffffff" /><path
           d="m 95.107,182.962 c 0.002,0 0.002,-0.002 0.004,-0.002 0.742,0 1.359,-0.519 1.518,-1.215 v -10.733 c 0,-4.057 -1.717,-7.127 -6.471,-7.127 -1.68,0 -4.492,0.952 -5.771,3.619 -0.988,-2.522 -3.143,-3.619 -5.299,-3.619 -2.742,0 -4.605,0.986 -5.92,3.144 h -0.074 v -1.159 c -0.012,-0.853 -0.701,-1.542 -1.557,-1.542 -0.006,0 -0.01,-0.004 -0.016,-0.004 h -1.643 v 18.639 h 1.859 c 0.002,0 0.002,-0.002 0.004,-0.002 0.861,0 1.559,-0.698 1.559,-1.558 0,-0.022 0.008,-0.032 0.014,-0.048 v -7.783 c 0,-3.473 1.387,-6.908 4.895,-6.908 2.777,0 3.328,2.887 3.328,5.188 v 11.11 h 1.885 c 0.002,0 0.002,-0.002 0.006,-0.002 0.812,0 1.471,-0.624 1.543,-1.417 v -7.972 c 0,-3.473 1.389,-6.908 4.896,-6.908 2.777,0 3.326,2.887 3.326,5.188 v 11.11 h 1.914 z"
           id="path17"
           inkscape:connector-curvature="0"
           style="fill:#ffffff" /><path
           d="m 148.192,182.962 c 0.003,0 0.003,-0.002 0.006,-0.002 0.836,0 1.512,-0.66 1.55,-1.486 v -9.584 c 0,-5.007 -2.157,-8.005 -6.981,-8.005 -2.594,0 -5.077,1.28 -6.102,3.401 h -0.072 v -1.394 c 0,-0.002 -0.004,-0.002 -0.004,-0.005 0,-0.862 -0.697,-1.561 -1.558,-1.561 -0.008,0 -0.011,-0.004 -0.017,-0.004 h -1.75 v 18.639 h 1.888 c 0.001,0 0.001,-0.002 0.005,-0.002 0.816,0 1.479,-0.633 1.544,-1.434 v -7.189 c 0,-4.53 1.756,-7.674 5.664,-7.674 2.999,0.183 3.946,2.302 3.946,6.65 v 9.648 h 1.881 z"
           id="path19"
           inkscape:connector-curvature="0"
           style="fill:#ffffff" /><path
           d="m 166.685,164.323 c -0.006,0 -0.009,0.004 -0.018,0.004 -0.724,0 -1.426,0.498 -1.73,1.17 l -4.726,14.249 h -0.075 l -4.623,-14.241 c -0.303,-0.676 -1.008,-1.178 -1.736,-1.178 -0.006,0 -0.011,-0.004 -0.016,-0.004 h -2.395 l 6.321,17.396 c 0.22,0.621 0.66,1.571 0.66,1.973 0,0.365 -1.025,4.604 -4.095,4.604 -0.077,0 -0.152,-0.008 -0.229,-0.014 -0.781,-0.043 -1.373,0.504 -1.505,1.347 l -0.093,1.189 c 0.621,0.109 1.244,0.256 2.339,0.256 4.532,0 5.885,-4.131 7.164,-7.711 l 6.87,-19.041 h -2.113 z"
           id="path21"
           inkscape:connector-curvature="0"
           style="fill:#ffffff" /></g></g></g><g
     id="rectangle"
     transform="translate(0,76.332993)" /><g
     id="carré"
     transform="translate(0,76.332993)" /></svg>