<?xml version="1.0" encoding="UTF-8" standalone="no"?>
<!-- Uploaded to: SVG Repo, www.svgrepo.com, Generator: SVG Repo Mixer Tools -->

<svg
   fill="#000000"
   width="800px"
   height="800px"
   viewBox="0 0 64 64"
   data-name="Layer 1"
   id="Layer_1"
   version="1.1"
   sodipodi:docname="tcpip.svg"
   inkscape:version="1.2.2 (732a01da63, 2022-12-09, custom)"
   xmlns:inkscape="http://www.inkscape.org/namespaces/inkscape"
   xmlns:sodipodi="http://sodipodi.sourceforge.net/DTD/sodipodi-0.dtd"
   xmlns="http://www.w3.org/2000/svg"
   xmlns:svg="http://www.w3.org/2000/svg">
  <defs
     id="defs41">
    <rect
       x="248.71617"
       y="153.49016"
       width="469.21125"
       height="150.07303"
       id="rect331" />
  </defs>
  <sodipodi:namedview
     id="namedview39"
     pagecolor="#ffffff"
     bordercolor="#000000"
     borderopacity="0.25"
     inkscape:showpageshadow="2"
     inkscape:pageopacity="0.0"
     inkscape:pagecheckerboard="0"
     inkscape:deskcolor="#d1d1d1"
     showgrid="false"
     inkscape:zoom="1.01625"
     inkscape:cx="324.23124"
     inkscape:cy="400.98401"
     inkscape:window-width="1858"
     inkscape:window-height="1016"
     inkscape:window-x="0"
     inkscape:window-y="0"
     inkscape:window-maximized="1"
     inkscape:current-layer="Layer_1" />
  <rect
     height="7"
     width="2"
     x="10"
     y="32"
     id="rect18"
     style="fill:#0000ff" />
  <path
     d="M19,50.184V45a1,1,0,0,0-.143-.515L16,39.723V32H14v8a1,1,0,0,0,.143.515L17,45.277v4.907a3,3,0,1,0,2,0Z"
     id="path20"
     style="fill:#0000ff" />
  <path
     d="M55,50.184V45a1,1,0,0,0-.143-.515L52,39.723V32H50v8a1,1,0,0,0,.143.515L53,45.277v4.907a3,3,0,1,0,2,0Z"
     id="path22"
     style="fill:#0000ff" />
  <path
     d="M61.857,49.485,59,44.723V39H57v6a1,1,0,0,0,.143.515L60,50.277V62h2V50A1,1,0,0,0,61.857,49.485Z"
     id="path24"
     style="fill:#0000ff" />
  <path
     d="M46,43.184V32H44V43.184a3,3,0,1,0,2,0Z"
     id="path26"
     style="fill:#0000ff" />
  <path
     d="M10,41a2.993,2.993,0,0,0-1,5.816v4.507L4.629,53.071A1,1,0,0,0,4,54v8H6V54.677l4.371-1.748A1,1,0,0,0,11,52V46.816A2.993,2.993,0,0,0,10,41Z"
     id="path28"
     style="fill:#0000ff" />
  <path
     d="M34,50.184V45a1,1,0,0,0-.143-.515L31,39.723V32H29v8a1,1,0,0,0,.143.515L32,45.277v4.907a3,3,0,1,0,2,0Z"
     id="path30"
     style="fill:#0000ff" />
  <path
     d="M38,44.723V32H36V45a1,1,0,0,0,.143.515L39,50.277V62h2V50a1,1,0,0,0-.143-.515Z"
     id="path32"
     style="fill:#0000ff" />
  <path
     d="M25,43.184V32H23V43.184a3,3,0,1,0,2,0Z"
     id="path34"
     style="fill:#0000ff" />
  <path
     d="M9,31H50A11,11,0,0,0,50,9h-.61a10.486,10.486,0,0,0-19.424-.879A10.5,10.5,0,0,0,12,15.5V19H9A6,6,0,0,0,9,31Zm34-4h7v2H43Zm-9,0h5v2H34Zm-4,0h2v2H30Z"
     id="path36"
     style="fill:#0000ff" />
  <text
     xml:space="preserve"
     style="font-style:oblique;font-variant:normal;font-weight:bold;font-stretch:normal;font-size:6.82666px;font-family:Purisa;-inkscape-font-specification:'Purisa, Bold Oblique';font-variant-ligatures:normal;font-variant-caps:normal;font-variant-numeric:normal;font-variant-east-asian:normal;fill:#ffffff;stroke:#d5e5ff;stroke-width:0.08"
     x="16.201361"
     y="21.05953"
     id="text441"><tspan
       sodipodi:role="line"
       id="tspan439"
       style="stroke-width:0.08;fill:#ffffff"
       x="16.201361"
       y="21.05953">TCP/IP</tspan></text>
</svg>
